<?xml version="1.0" standalone="no"?><!DOCTYPE svg PUBLIC "-//W3C//DTD SVG 1.1//EN" "http://www.w3.org/Graphics/SVG/1.1/DTD/svg11.dtd"><svg t="1577341791309" class="icon" viewBox="0 0 1024 1024" version="1.1" xmlns="http://www.w3.org/2000/svg" p-id="8386" xmlns:xlink="http://www.w3.org/1999/xlink" width="32" height="32"><defs><style type="text/css"></style></defs><path d="M512 960c-9.52 0-17.23-7.72-17.23-17.23s7.71-17.23 17.23-17.23c124.12 0 235.63-74.32 284.63-187.23-3.31 0.19-6.65 0.29-10.01 0.29-9.52 0-17.23-7.72-17.23-17.23V409.05c0-9.52 7.71-17.23 17.23-17.23 12.08 0 23.88 1.25 35.27 3.6C814.95 230.49 678.6 98.46 512 98.46S209.05 230.49 202.12 395.42c11.39-2.36 23.19-3.6 35.27-3.6 9.52 0 17.23 7.72 17.23 17.23v312.31c0 9.52-7.71 17.23-17.23 17.23C141.77 738.59 64 660.81 64 565.21c0-70.72 42.56-131.67 103.38-158.63C168.48 217.49 322.65 64 512 64s343.52 153.49 344.62 342.58C917.44 433.54 960 494.49 960 565.21c0 78.29-52.15 144.63-123.54 166.09C787.19 868.28 657.38 960 512 960z m291.85-532.66v275.73c68.5-8.51 121.69-67.1 121.69-137.86s-53.19-129.35-121.69-137.87z m-583.7 0c-68.5 8.51-121.69 67.1-121.69 137.86s53.19 129.35 121.69 137.86V427.34z" p-id="8387" fill="#FE89A2"></path></svg>