<?xml version="1.0" standalone="no"?><!DOCTYPE svg PUBLIC "-//W3C//DTD SVG 1.1//EN" "http://www.w3.org/Graphics/SVG/1.1/DTD/svg11.dtd"><svg t="1577342034623" class="icon" viewBox="0 0 1024 1024" version="1.1" xmlns="http://www.w3.org/2000/svg" p-id="8880" xmlns:xlink="http://www.w3.org/1999/xlink" width="32" height="32"><defs><style type="text/css"></style></defs><path d="M771.1 890.7h-520c-49.6 0-90-40.4-90-90V534.9c0-16.6 13.4-30 30-30s30 13.4 30 30v265.8c0 16.5 13.5 30 30 30h520c16.5 0 30-13.5 30-30V536.3c0-16.6 13.4-30 30-30s30 13.4 30 30v264.3c0 49.7-40.4 90.1-90 90.1z m90-505.5c-15.3 0-28.3-11.6-29.8-27.1l-13.1-137.2v-1.4c0-16.5-13.5-30-30-30h-554c-16.5 0-30 13.5-30 30v1.4L191 356.7c-1.6 16.5-16.3 28.6-32.8 27-16.5-1.6-28.6-16.3-27-32.8l12.9-133c0.9-48.9 40.9-88.4 90-88.4h554c49.1 0 89.1 39.5 90 88.4L891 352.4c1.6 16.5-10.5 31.1-27 32.7-1 0.1-2 0.1-2.9 0.1z m-613 87.3c-64.5 0-117-52.5-117-117v-1.3l10.1-114.3c1.5-16.5 16-28.7 32.5-27.2s28.7 16 27.2 32.5L191 356.7c0.6 30.9 26 55.8 57 55.8 31.4 0 57-25.6 57-57 0-16.6 13.4-30 30-30s30 13.4 30 30c0.1 64.5-52.4 117-116.9 117z m525.3 0c-64.5 0-117-52.5-117-117 0-16.6 13.4-30 30-30s30 13.4 30 30c0 31.4 25.6 57 57 57 31 0 56.4-24.9 57-55.8l-9.9-111.5c-1.5-16.5 10.7-31.1 27.2-32.5 16.5-1.5 31.1 10.7 32.5 27.2l10.1 114.3v1.3c0.1 64.5-52.4 117-116.9 117z m-347 0c-64.5 0-117-52.5-117-117 0-16.6 13.4-30 30-30s30 13.4 30 30c0 31.4 25.6 57 57 57s57-25.6 57-57c0-16.6 13.4-30 30-30s30 13.4 30 30c0 64.5-52.4 117-117 117z m174.3 0c-64.5 0-117-52.5-117-117 0-16.6 13.4-30 30-30s30 13.4 30 30c0 31.4 25.6 57 57 57s57-25.6 57-57c0-16.6 13.4-30 30-30s30 13.4 30 30c0 64.5-52.4 117-117 117z" p-id="8881" fill="#FE89A2"></path></svg>